<svg xmlns="http://www.w3.org/2000/svg" viewBox="0 0 310.79 120.12"><defs><style>.cls-1{fill:#fff;}.cls-2{fill:#ff4ac3;}</style></defs><g id="Capa_2" data-name="Capa 2"><g id="Capa_1-2" data-name="Capa 1"><path class="cls-1" d="M170,21.77a11.06,11.06,0,0,0-.26-3.23,1.75,1.75,0,0,1-.22-1.11,3.15,3.15,0,0,0-.27-1.42,6.28,6.28,0,0,1-.44-1.86,20.48,20.48,0,0,0-.71-2.84,6.31,6.31,0,0,0-.89-2l-.71-1.06a5.64,5.64,0,0,0-1.5-1.6,5.79,5.79,0,0,1-1.42-1.33c-1-1.12-2.75-1.89-5.24-2.3a5.85,5.85,0,0,0-2.12.26,4.23,4.23,0,0,0-1.82.93c-.38.39-.58.65-.58.8a7.2,7.2,0,0,1-.71,1.64A15.43,15.43,0,0,0,152,10a2.66,2.66,0,0,1-.4,1.06,2.62,2.62,0,0,0-.31,1.25,2.91,2.91,0,0,1-.35,1.33,5.25,5.25,0,0,0-.36,1.86c-.12.88-.26,1.74-.44,2.57,0,.12-.06.59-.18,1.42-.23,1.36-.38,2.24-.44,2.66a31.51,31.51,0,0,0-.62,5.67,6.13,6.13,0,0,1-.18,1.51,82.08,82.08,0,0,0-.53,10.59,119.28,119.28,0,0,0,.35,12.46c.06.53,0,.83-.08.89s-.33-.8-.45-2.93a13.11,13.11,0,0,0-.26-2.3q-.45-1.52-.18-7.63a10.35,10.35,0,0,0,0-3.28,2.16,2.16,0,0,1,0-1.37,2.53,2.53,0,0,0,.09-1.29,13.22,13.22,0,0,1-.17-2.75,21.36,21.36,0,0,0-.23-3.28,14.72,14.72,0,0,1,0-3.37,53.72,53.72,0,0,0,.18-6.65,21.2,21.2,0,0,1,.27-4.78c.17-.42.23-.67.17-.76a19.39,19.39,0,0,1-.26-2.61q-.36-3.9-1.42-4.7a7.44,7.44,0,0,0-2.57-.89,3.69,3.69,0,0,0-2.31,0c-.41.24-.88,1.3-1.42,3.19a6.09,6.09,0,0,0-.3,1.64,10.8,10.8,0,0,1-.23,1.64,16.07,16.07,0,0,0-.71,4.88,8.21,8.21,0,0,1-.26,2.75,4.78,4.78,0,0,0-.27,1.95q0,1.59-.09,4c-.06,3.31,0,6.77.31,10.37a31.32,31.32,0,0,0,.93,6.74,8.37,8.37,0,0,1,.54,2,5.29,5.29,0,0,0,.35,1.68c.12.18.15.31.09.4a3.06,3.06,0,0,0,.18,1.24,3.64,3.64,0,0,0,.44,1.29,1.1,1.1,0,0,1,.18.75,8.67,8.67,0,0,0,.53,2.17c.29,1.07.5,1.81.62,2.22a4.06,4.06,0,0,0,.35,1.07,2.86,2.86,0,0,1,.27,1.15,20.52,20.52,0,0,0,.71,2.52c.41,1.28.74,2.21,1,2.8a2.16,2.16,0,0,1,.26.88,1,1,0,0,0,.18.54,2.66,2.66,0,0,1,.31.62c.15.35.31.74.49,1.15q1.06,2.92,3,3.46a9.64,9.64,0,0,0,2.53.22c1,0,1.53-.13,1.68-.31a10.42,10.42,0,0,0,.27-3.15c0-1.92,0-3.65-.13-5.19s-.21-2.63-.27-3.63-.12-1.83-.18-2.48-.12-1.42-.17-2.66c-.06-.71-.09-1.13-.09-1.24,0-.3.2-.42.44-.36a9.47,9.47,0,0,0,1.82.27,3,3,0,0,0,1.46-.09l1.06-.45a1.35,1.35,0,0,0,.85-.53A19.6,19.6,0,0,1,160.39,46c1.48-1.21,2.37-2,2.66-2.3s.54-.49.71-.49,1-.61,2-1.82a8.62,8.62,0,0,0,1.69-2.53,6.85,6.85,0,0,1,.44-1.15,7,7,0,0,0,.71-1.59,14.37,14.37,0,0,1,.62-1.82,11.94,11.94,0,0,0,.53-3.24q.18-2.38.36-3.9a4.63,4.63,0,0,0,.09-1.95C170.09,24.93,170,23.78,170,21.77Zm-10.1-1.68A10.94,10.94,0,0,0,159.6,23a17.24,17.24,0,0,1-.62,5.23,4.59,4.59,0,0,0-.18,1.42,7.58,7.58,0,0,1-.27,1.86,13.24,13.24,0,0,0-.44,1.78,3.73,3.73,0,0,1-.44,1.33,1.77,1.77,0,0,0-.36,1,13.43,13.43,0,0,1-1.24,3c-.24.65-.4,1.14-.49,1.46a3.66,3.66,0,0,1-.57,1.11,8.85,8.85,0,0,0-.8,1.33c-.18.3-.42.63-.71,1a10.87,10.87,0,0,1-.8.93c-.24.24-.38.32-.44.27a29.91,29.91,0,0,1,0-3.73c.06-2.42.12-4,.18-4.61.17-1.77.29-3.13.35-4.08a30.64,30.64,0,0,1,.44-4.16,4.8,4.8,0,0,0,.18-1.33,14.21,14.21,0,0,1,.27-1.69,3.46,3.46,0,0,0,.22-1,2.93,2.93,0,0,1,.13-.93l.27-1.33a21.15,21.15,0,0,1,1.42-5.58c.17-.48.32-1,.44-1.42s.47-1.18.71-1.78a3.74,3.74,0,0,0,.44-1.15c0-.18.18-.44.53-.8a13,13,0,0,0,.8-1.24l.27-.71.09.89a2.18,2.18,0,0,0,.26,1.2,14.42,14.42,0,0,1,.4,3.9,24.91,24.91,0,0,0,.31,4A1.16,1.16,0,0,1,159.91,20.09Z"/><path class="cls-1" d="M281.81,32.94a2,2,0,0,0-.93-.26,1.75,1.75,0,0,0-.53,0c-.06,0-.09.13-.09.31a3.6,3.6,0,0,1-.18,1.42c-.17.71-.29,1.24-.35,1.6s-.18.88-.36,1.59-.29,1.15-.35,1.51A40.07,40.07,0,0,1,276.8,46,18.28,18.28,0,0,1,275,49.12,9.48,9.48,0,0,1,273,51.3a3.65,3.65,0,0,1-2.09.79c-.35,0-.74-.26-1.15-.79a2.68,2.68,0,0,1-.62-1.07.59.59,0,0,0-.18-.44,10.26,10.26,0,0,1-.53-2.53,15.87,15.87,0,0,0-.53-2.7,10.78,10.78,0,0,1-.4-2.31q-.22-1.95-.36-2.88c-.08-.62-.13-2-.13-4.3.06-1.65.1-2.66.13-3a.91.91,0,0,1,.31-.71,19.1,19.1,0,0,0,1.91-2.22A17.36,17.36,0,0,0,271,26.91a3.74,3.74,0,0,1,.53-.88,9.76,9.76,0,0,0,.76-1.38c.32-.68.65-1.37,1-2.08a16.63,16.63,0,0,0,.67-1.6,2.75,2.75,0,0,1,.35-1c.18-.41.62-1.92,1.33-4.52A33.1,33.1,0,0,0,277,7.68a10.24,10.24,0,0,0-.13-3.11,6,6,0,0,0-.76-2.21,6.42,6.42,0,0,0-3-2,4,4,0,0,0-3.06-.17c-.41.17-.65.32-.7.44a8.25,8.25,0,0,1-.89,1,8,8,0,0,0-1.15,1.46,10.19,10.19,0,0,1-.8,1.33c-.36.36-.53.62-.53.8a1.27,1.27,0,0,1-.36.71,20.89,20.89,0,0,0-1.86,3.64,24.3,24.3,0,0,0-1.24,3.45c-.18.6-.39,1.19-.62,1.78a12.73,12.73,0,0,0-.89,3.63,4.82,4.82,0,0,1-.4,1.29,2.14,2.14,0,0,0-.22,1,6.24,6.24,0,0,1-.27,1.59,39.29,39.29,0,0,0-.88,9.09c0,1.56,0,2.92.06,4.06-.18.41-.37.89-.59,1.48a23.08,23.08,0,0,1-4.79,7.18,13.61,13.61,0,0,1-1.24,1,3.41,3.41,0,0,1-1.07.49,6.59,6.59,0,0,1-1.42.13,5.73,5.73,0,0,1-1.33-.09,1.89,1.89,0,0,1-.7-.71c-1-1.06-1.51-1.83-1.51-2.3a.82.82,0,0,0-.27-.67.54.54,0,0,1-.17-.58,1.75,1.75,0,0,0-.23-1,2,2,0,0,1-.22-1.15,3.82,3.82,0,0,0-.09-1.37,11.53,11.53,0,0,1-.13-3.1c.09-1.25.25-1.9.49-2a10.69,10.69,0,0,0,4.25-3.23,15.61,15.61,0,0,0,3.11-5.1,15.32,15.32,0,0,0,.4-2.3,3.27,3.27,0,0,0-.4-2.13,4.48,4.48,0,0,0-2.13-1.86,5.29,5.29,0,0,0-2.93-.54,6.52,6.52,0,0,0-1.73.54,3,3,0,0,0-1.19.71,3.21,3.21,0,0,1-.76.66q-.57.41-.57.75c0,.24-.28.65-.85,1.24a6.2,6.2,0,0,0-1.19,1.69,5.69,5.69,0,0,1-.89,1.42,12.53,12.53,0,0,0-1,2.08,5,5,0,0,0-.54,2,2,2,0,0,1-.09.62,18.73,18.73,0,0,0-.28,1.86h-.11a13.75,13.75,0,0,0-2.44.18c-.83.17-1.54.29-2.13.35a4.69,4.69,0,0,1-1.11.13s-.07-.9-.13-2.61c-.12-2.42-.3-3.73-.53-3.9a2.06,2.06,0,0,1-.14-.84,4.76,4.76,0,0,0-.4-1.6c-.23-.56-.32-.87-.26-.93s0-.31-.27-.76a2.5,2.5,0,0,1-.35-1,1.19,1.19,0,0,0-.62-.89,5.62,5.62,0,0,1-1-1.07A5,5,0,0,0,228,17.07,15,15,0,0,0,225.29,16a4.43,4.43,0,0,0-2.08-.18,4.32,4.32,0,0,0-1.82,1.24,4.91,4.91,0,0,0-1.06,1.24,2.18,2.18,0,0,1-.49.8,2,2,0,0,0-.49.84,9.36,9.36,0,0,1-.49,1.64,9.79,9.79,0,0,0-.53,2,2.63,2.63,0,0,1-.13.8,7.61,7.61,0,0,0-.53,2.13,22.1,22.1,0,0,0-.36,2.3,1.53,1.53,0,0,1-.18.71,4.1,4.1,0,0,0-.26,1.16c-.06.47-.15,1.21-.27,2.21-.29,1.9-.5,3.64-.62,5.23-.12.77-.21,1.42-.26,2-.12,1.3-.24,3.36-.36,6.2q-.18,6.21-.26,6.83l-.27-1.78q-.18-3.63,0-14.09.09-5,.09-6.47,0-4,.09-8.87l.09-4.17-.63-1.15a2.93,2.93,0,0,0-.66-1.06,7,7,0,0,0-1.11-.71,9.82,9.82,0,0,0-2.22-.8,2.91,2.91,0,0,0-1.68.09c-.89.41-1.33.8-1.33,1.15a1.75,1.75,0,0,1-.44.84,1.78,1.78,0,0,0-.45,1,2.22,2.22,0,0,1-.26,1.11,2.28,2.28,0,0,0-.27,1.11,10.4,10.4,0,0,1-.18,1.59c-.11.77-.23,1.9-.35,3.37q-.18,3,0,8.87c0,.55,0,1,0,1.53q-.44,1.07-1.77,4.14c-.18.48-.33.71-.45.71s-.17.08-.17.22a2.31,2.31,0,0,1-.4.89,12.78,12.78,0,0,1-1,1.38,14.77,14.77,0,0,1-1,1.15,5,5,0,0,1-3,1.59c-.35,0-.8-.35-1.33-1.06a13.84,13.84,0,0,1-1.51-2.66,16.58,16.58,0,0,1-1.06-3.19c-.18-.89-.33-1.57-.44-2a3.32,3.32,0,0,1-.18-1.06,8.09,8.09,0,0,0-.89-2.4,4.77,4.77,0,0,0-1.11-1.24,7.5,7.5,0,0,0-1.64-1,4,4,0,0,0-1.68-.4q-1.15,0-3.19,3.64-1.06,1.95-1.95,3.45c-.77,1.31-1.19,2-1.25,2-.17.24-.35.48-.53.71a18.62,18.62,0,0,1-1.33,1.47,7.79,7.79,0,0,1-1.15,1.1,5.35,5.35,0,0,1,0-1.5c.06-.89.16-1.88.31-3a5.48,5.48,0,0,1,.4-1.82,2.71,2.71,0,0,0,.4-1.15,3.46,3.46,0,0,1,.4-1.24,5.32,5.32,0,0,0,.35-1.33A25.15,25.15,0,0,1,182.47,26a17.08,17.08,0,0,0,.89-1.82,4.89,4.89,0,0,1,.66-1.15c.39-.56.61-.84.67-.84a3.47,3.47,0,0,1,.57,1,6.35,6.35,0,0,1,.58,1.56,2.49,2.49,0,0,0,1.68,1.95,1.55,1.55,0,0,0,2.13-.8,4.6,4.6,0,0,0,.36-2,4.47,4.47,0,0,0-.27-1.86,7.46,7.46,0,0,1-.53-1.15,4.55,4.55,0,0,0-1.07-1.25,11.12,11.12,0,0,0-1.9-1.33,22.7,22.7,0,0,0-2.17-1.06,6.91,6.91,0,0,0-4.44-.27,6.06,6.06,0,0,0-2.35,1.47,8.2,8.2,0,0,0-1.55,2.08L175,21.86a12.86,12.86,0,0,0-.88,1.69,16.59,16.59,0,0,0-1.51,4.52,12.64,12.64,0,0,1-.53,1.68,17.71,17.71,0,0,0-.71,5.59,10.86,10.86,0,0,0,.71,5,3.76,3.76,0,0,1,.35,1,3.23,3.23,0,0,0,.44,1,5.63,5.63,0,0,0,1.47,1.46,9.7,9.7,0,0,0,2.26,1.25,6.06,6.06,0,0,0,2.13.48,3.88,3.88,0,0,0,2.48-1.42,16.86,16.86,0,0,0,1.55-2c.68-1,1.17-1.73,1.46-2.26a41.78,41.78,0,0,1,3.28-5.41l.71-.89a13.92,13.92,0,0,1,.36,1.87,5.76,5.76,0,0,0,.35,1.9.44.44,0,0,1,.05.49c-.09.18,0,.46.17.84a2.12,2.12,0,0,1,.31.93,1.31,1.31,0,0,0,.36.8,1.34,1.34,0,0,1,.35.71,9.7,9.7,0,0,0,1.6,2.22,10.62,10.62,0,0,0,4.88,3.28,4.94,4.94,0,0,0,4-.27,10.38,10.38,0,0,0,2.17-1.68,12.34,12.34,0,0,0,1.82-2.13,11.19,11.19,0,0,1,.88-1.33,3.65,3.65,0,0,0,.45-.79c.05.36.11.82.17,1.41a12.08,12.08,0,0,0,.44,2.75,6.47,6.47,0,0,1,.36,1.68,3.5,3.5,0,0,0,.35,1.33,5.45,5.45,0,0,1,.45,1.42,13.48,13.48,0,0,0,.26,2.13,5.06,5.06,0,0,0,.54,1.77,2.52,2.52,0,0,1,.35,1.15,10.71,10.71,0,0,0,1,3.73,2.16,2.16,0,0,1,.27,1,13,13,0,0,0,.84,2.49A15.06,15.06,0,0,0,212.26,64a3.67,3.67,0,0,0,2.3,1.42,6.33,6.33,0,0,0,3.37-.17l.53-.27-.08-7c-.06-.65-.09-1.38-.09-2.18s0-1.49,0-2.08,0-1.14,0-1.64V50.23a1.76,1.76,0,0,1,0-.84c.06-.09.54,0,1.46.31a7.74,7.74,0,0,0,2.35.44,6.21,6.21,0,0,0,3.9-1.15,13.6,13.6,0,0,0,3.73-3.72c.35-.59.73-1.27,1.15-2a15.47,15.47,0,0,0,1.68-3.95,18.89,18.89,0,0,0,.89-4.39,1.23,1.23,0,0,1,.09-.53c0-.29,1-.62,2.92-1q1.51-.27,2.31-.45l.4,0c0,.33-.05.55-.05.66a20.61,20.61,0,0,0,.53,4.61,6.15,6.15,0,0,1,.49,1.51,7.18,7.18,0,0,0,.85,2.09,3.74,3.74,0,0,1,.53,1q0,.18,1.11,1.2a18.48,18.48,0,0,0,2,1.64,11.72,11.72,0,0,0,4,2,7.13,7.13,0,0,0,5-.17,11,11,0,0,0,2.08-1.65,12.06,12.06,0,0,0,2.08-2.43c.47-.65.86-1.16,1.15-1.51a8.92,8.92,0,0,0,1.07-2c0-.06.08-.16.13-.23a3.41,3.41,0,0,1,.22,1,3.06,3.06,0,0,0,.27.79,1.45,1.45,0,0,1,.27.89c0,.3.07.49.22.58a.54.54,0,0,1,.22.49,1.65,1.65,0,0,0,.13.66,14.27,14.27,0,0,1,.44,1.37c.21.71.37,1.1.49,1.16s.21.32.27.8a8.53,8.53,0,0,0,2.3,3.63,9,9,0,0,0,5.32,2.75,5.59,5.59,0,0,0,1.78.18,5.27,5.27,0,0,0,2.39-1.11,9.38,9.38,0,0,0,2.22-2.17q2.29-3.37,4.34-10.55c.12-.42.39-1.59.8-3.51s.62-2.94.62-3.06S282.14,33.12,281.81,32.94Zm-14.23-6.2.27-1.86a4.86,4.86,0,0,0,.09-1.51,1.77,1.77,0,0,1,.26-1.07,4,4,0,0,0,.36-1.68,1.91,1.91,0,0,1,.17-1.06,1.94,1.94,0,0,0,.27-1,17.49,17.49,0,0,1,.8-3.81,4.81,4.81,0,0,0,.44-1.51,2,2,0,0,1,.36-1,2,2,0,0,0,.35-1,5.27,5.27,0,0,1,.8-2.48,4.68,4.68,0,0,0,.27-1,1.27,1.27,0,0,1,.35-.84,1.32,1.32,0,0,0,.35-.84,1.48,1.48,0,0,0,.09-.44c.12-.18.21-.23.27-.14a1.49,1.49,0,0,1,.09.67,26.58,26.58,0,0,1,0,2.88c0,1.33-.07,2.26-.13,2.79s-.09,1-.09,1.16c-.06.35-.12.68-.18,1a8.19,8.19,0,0,1-.26,1.06,35.4,35.4,0,0,1-4.08,10.64,8.27,8.27,0,0,1-.71,1.07l-.36.44Zm-20.83,2.48a2.94,2.94,0,0,0,.35-1A35.58,35.58,0,0,1,248.52,25a9.56,9.56,0,0,1,1.6-2.74l.17-.18c.06.06.09.23.09.53,0,.47,0,.74-.13.8s-.16.32-.22.8A9.63,9.63,0,0,1,248.17,28a6.41,6.41,0,0,1-1.6,1.59Zm-21.37,9.49A4.73,4.73,0,0,0,225,40a3.81,3.81,0,0,1-.79,2.3A.8.8,0,0,0,224,43a5.08,5.08,0,0,1-.93,2.31,7.35,7.35,0,0,1-1.82,2.13,2.76,2.76,0,0,1-1.06.53c-.53,0-.8-.53-.8-1.6q0-2.92,3.1-5.85a12.85,12.85,0,0,1,2.93-2.57C225.73,37.73,225.73,38,225.38,38.71Zm1.06-7.19c-.06.66-.08,1.1-.08,1.33a.61.61,0,0,0-.09.4v.4c-.06.24-.28.46-.67.67a2.45,2.45,0,0,0-.66.44,6.35,6.35,0,0,1-1.2.75,16.31,16.31,0,0,0-1.82,1.16,13.45,13.45,0,0,1-1.42,1.06c-.47.42-.94.86-1.41,1.33l-.36.44c-.18.24-.27.21-.27-.08a14.1,14.1,0,0,1,.27-2c.18-1.13.3-2,.36-2.49a15.87,15.87,0,0,1,.44-2.74,6.88,6.88,0,0,0,.35-1.78,25.84,25.84,0,0,1,2.84-8.6c.12-.18.25-.37.4-.57a7,7,0,0,1,.49-.62c.17-.21.34-.39.48-.54a5.24,5.24,0,0,1,.4-.35.53.53,0,0,1,.27-.13,11.66,11.66,0,0,1,.4,1.28,7.69,7.69,0,0,1,.31,1.46,9.71,9.71,0,0,0,.35,1.69,20.11,20.11,0,0,1,.58,3.86A16.52,16.52,0,0,1,226.44,31.52Z"/><path class="cls-1" d="M108.72,68.85c.22-.1.38-.1.49,0a.65.65,0,0,0,.37.18,9.91,9.91,0,0,0-1.19,2.44,6.8,6.8,0,0,0-.24,2.53,4.94,4.94,0,0,0,.32,1.92,3.66,3.66,0,0,0,1.56.85c1.52.66,2.53.71,3,.17a.94.94,0,0,0,.32-.53c0-.14.17-.4.49-.78a1.64,1.64,0,0,0,.49-.82,1.34,1.34,0,0,1,.25-.65,7.59,7.59,0,0,0,.57-2.2,6.33,6.33,0,0,0,.08-2.21c-.11-.76-.9-1.36-2.37-1.79a5.7,5.7,0,0,0-1.67-.29,1.18,1.18,0,0,0-.51.2,3.16,3.16,0,0,0-.27-1,7.46,7.46,0,0,0-.65-1.19,7,7,0,0,0-.9-1.1,12.47,12.47,0,0,0-2.28-2.12,4,4,0,0,1-.9-.33,1.37,1.37,0,0,0-1-.08,3.09,3.09,0,0,1-1.59-.12,3.28,3.28,0,0,0-1.76-.08,1.74,1.74,0,0,1-1.1,0,1,1,0,0,0-1,0,8.11,8.11,0,0,1-2.12.12,4.71,4.71,0,0,0-1.88.16,6.1,6.1,0,0,1-2,.29,26.83,26.83,0,0,0-3,.32,12.55,12.55,0,0,1-2,.25,11.8,11.8,0,0,0-3.75,1,2.37,2.37,0,0,1-1.15.16c-.38-.11-1.68.33-3.92,1.31A4.5,4.5,0,0,0,78,66.57a2,2,0,0,0-.7,1.22,2.23,2.23,0,0,0,.17.7,8.24,8.24,0,0,0,.45,1l.57,1.14a7.05,7.05,0,0,0,.61,1,6.14,6.14,0,0,0,.57.69l.73.58H82a6.6,6.6,0,0,0,2.16-.25c.41-.16.67-.22.78-.16a1.71,1.71,0,0,0,.89-.17,4,4,0,0,1,1.39-.24,2.26,2.26,0,0,0,1-.16,5.25,5.25,0,0,1,1.23-.33q.89-.16,1.14-.24c.16-.06.26-.07.28,0s0,.15,0,.37a1.64,1.64,0,0,1-.16.74,7.39,7.39,0,0,0-.24,2,22.5,22.5,0,0,1-.25,2.69,40.63,40.63,0,0,0-.16,5q.08,4.25,0,5a5.82,5.82,0,0,0,0,2A22.49,22.49,0,0,1,90.27,92a17.77,17.77,0,0,0,.16,2.77,30.72,30.72,0,0,1,.49,6,17,17,0,0,0,.49,2.78c.28,1.3.47,2.34.58,3.1s.24,1.31.4,2a7.69,7.69,0,0,1,.25,2,6,6,0,0,0,.16,1.3,13,13,0,0,0,.37,1.35,3.71,3.71,0,0,0,.37.86,3.71,3.71,0,0,1,.57,1.22c.54,1.53,1.14,2.4,1.79,2.61a4.16,4.16,0,0,0,1.51.25,1.64,1.64,0,0,0,1.11-.25,2.25,2.25,0,0,0,.24-1.34,5.79,5.79,0,0,1,.29-1.92,12,12,0,0,0,.28-3.27,16.45,16.45,0,0,0-.24-3.42,2.23,2.23,0,0,1-.12-1.23,9.67,9.67,0,0,0,0-2.37c-.11-1.41-.19-2.88-.24-4.4a19.8,19.8,0,0,0-.16-2.45,35.81,35.81,0,0,1-.25-5.19c0-3.29,0-5.45.08-6.49a11.25,11.25,0,0,0-.12-2.49,4,4,0,0,1,0-1.91,5.49,5.49,0,0,0,0-2.25,14,14,0,0,1-.12-2.73v-4a5.2,5.2,0,0,0-.17-1.84l-.16-.16c0-.33.49-.49,1.47-.49a4.49,4.49,0,0,0,1.59-.29,2.41,2.41,0,0,1,1.31-.08,3.41,3.41,0,0,0,1.43,0,14.81,14.81,0,0,1,2.61-.37A11.78,11.78,0,0,0,108.72,68.85Z"/><path class="cls-1" d="M118.84,72a6.13,6.13,0,0,0,.61,1.26,5,5,0,0,0,.62.82,12,12,0,0,0,1.38.65,4,4,0,0,0,1.64.41c.86,0,1.14-.3.81-.9s-.38-2.12,0-4.24a17.08,17.08,0,0,0,.33-2.33,2.3,2.3,0,0,0-.41-1.18,4.85,4.85,0,0,0-2.57-1.76q-1.92-.69-2.49-.12a.9.9,0,0,0-.33.57,2,2,0,0,1-.24.74c-.22.38-.11,1.93.32,4.65A6.91,6.91,0,0,0,118.84,72Z"/><path class="cls-1" d="M172.72,85.1a5.49,5.49,0,0,1-.41-1.63,1.47,1.47,0,0,0-.17-.66,6.28,6.28,0,0,1-.24-2c-.16-2.88-.46-4.57-.9-5.06a4.94,4.94,0,0,0-2.77-.89,1.69,1.69,0,0,0-1.47.24,4.44,4.44,0,0,0-.82,1.8,36.06,36.06,0,0,0-.9,4.24c0,.38-.11.76-.16,1.14a11.6,11.6,0,0,0-.49,3.11.5.5,0,0,1-.08.49,1,1,0,0,0-.17.57,16.45,16.45,0,0,1-.4,3.43V90l-.09-1.39a5.83,5.83,0,0,0-.08-2.16.31.31,0,0,1-.08-.37,4.3,4.3,0,0,0-.08-1.39c-.11-.76-.19-1.41-.25-2a17.28,17.28,0,0,0-.73-4.73,5.81,5.81,0,0,0-4-3.19,3.14,3.14,0,0,0-2.33-.2c-.46.24-.69.83-.69,1.75v1.31c0,.22,0,.9.08,2s.11,2.32.16,3.51.14,2.12.25,3.1A6.56,6.56,0,0,1,156,88a5.42,5.42,0,0,0,.12,1.51c.14.84.24,1.52.29,2,0,.17,0,.29.05.42l-.29.6c-.22.44-.49,1.09-.82,2a21.25,21.25,0,0,1-4.41,6.61,12.15,12.15,0,0,1-1.14.9,3.07,3.07,0,0,1-1,.45,5.72,5.72,0,0,1-1.31.12,5.56,5.56,0,0,1-1.22-.08,1.74,1.74,0,0,1-.65-.65c-.93-1-1.39-1.69-1.39-2.13a.77.77,0,0,0-.25-.61.49.49,0,0,1-.16-.53,1.56,1.56,0,0,0-.2-.94,1.76,1.76,0,0,1-.21-1.06,3.45,3.45,0,0,0-.08-1.27,10.55,10.55,0,0,1-.12-2.85c.08-1.15.23-1.74.45-1.8a9.8,9.8,0,0,0,3.91-3,14.15,14.15,0,0,0,2.86-4.69,12.34,12.34,0,0,0,.37-2.12,2.92,2.92,0,0,0-.37-2,4.1,4.1,0,0,0-2-1.72,4.86,4.86,0,0,0-2.69-.49,6.21,6.21,0,0,0-1.59.49,3,3,0,0,0-1.11.66,2.78,2.78,0,0,1-.69.61c-.35.24-.53.47-.53.69s-.26.6-.78,1.14a6,6,0,0,0-1.1,1.56,5.19,5.19,0,0,1-.81,1.3,12.07,12.07,0,0,0-.9,1.92,4.41,4.41,0,0,0-.49,1.84,2,2,0,0,1-.08.57,16.65,16.65,0,0,0-.29,1.88c-.06.45-.1.82-.13,1.12a37.71,37.71,0,0,0-4.56,2.71,23.61,23.61,0,0,0-2.61,1.8.47.47,0,0,1-.33.16c-.17,0-.25-.35-.25-.9a22.56,22.56,0,0,0-.48-3.51,1.42,1.42,0,0,0-.25-.73,10.47,10.47,0,0,1-.41-2.45,6.35,6.35,0,0,0-.24-1.06L127.7,85c-.19-.68-.34-1.16-.45-1.43a3.06,3.06,0,0,1-.25-.74,5.37,5.37,0,0,0-.69-1.26,14,14,0,0,0-1.1-1.51q-2.7-2.7-4.74-2.7a1.49,1.49,0,0,0-1,.41.8.8,0,0,0-.28.9c0,.38.13.84.24,1.39a9.18,9.18,0,0,0,.49,1.63c.17.44.22.68.17.74s0,.38.24,1,.41,1.31.57,2,.3,1.38.41,1.84.22.86.33,1.18.21.58.32.9a4,4,0,0,1,.34,1.48,2.78,2.78,0,0,0-.25.81.57.57,0,0,1-.17.41c-.11.05-.13.15-.08.28a2.07,2.07,0,0,1-.24,1,13.44,13.44,0,0,0-.41,1.47,13.17,13.17,0,0,1-.41,1.31,2.51,2.51,0,0,0-.33,1.06,6.93,6.93,0,0,1-.86,2.2,13.9,13.9,0,0,1-1.26,2.21l-.9.89a3.9,3.9,0,0,1-1.22.82l-.74.25-.65-.74a6.92,6.92,0,0,1-.86-1.1,9.42,9.42,0,0,1-.77-1.43,4.74,4.74,0,0,1-.41-1.31c-.11-.43-.27-1.06-.49-1.87a10.64,10.64,0,0,1-.41-3.43v-.82a19.79,19.79,0,0,1,.16-3.34,7,7,0,0,1,.41-2.21,2.27,2.27,0,0,0,.25-1.06,8.08,8.08,0,0,1,.57-3.1,5.84,5.84,0,0,0,.24-1.72l.09-1.38-.58-.33a6.5,6.5,0,0,0-3.18-1.06,2.51,2.51,0,0,0-1.63.33,3.62,3.62,0,0,0-1.47,2.44c-.11.6-.27,1.37-.49,2.29a22.74,22.74,0,0,0-.57,4.41,9.92,9.92,0,0,0,.08,3.26,18.24,18.24,0,0,1,.24,1.88,15,15,0,0,0,.37,2.33,11,11,0,0,0,.7,2.08A21.2,21.2,0,0,0,109,101a18.63,18.63,0,0,0,2.7,3,7.74,7.74,0,0,0,2.61,1.34,5.68,5.68,0,0,0,3.84,0,14.81,14.81,0,0,0,1.38-.85,3.77,3.77,0,0,0,.9-.7,1,1,0,0,1,.25-.49,14.56,14.56,0,0,0,2.12-3.43,12.27,12.27,0,0,0,.6-1.56l.22,2-.41.41a12,12,0,0,0-1.72,2.2c-.21.49-.38.74-.49.74a.14.14,0,0,0-.16.16,3.88,3.88,0,0,1-.53,1,4,4,0,0,0-.53,1,4.78,4.78,0,0,1-.41,1.06,15.66,15.66,0,0,0-1.22,3.84,11.43,11.43,0,0,0-.17,4.25,10.74,10.74,0,0,0,.65,2.77,4.76,4.76,0,0,0,2.86,2,9.46,9.46,0,0,0,1.55.41,4.51,4.51,0,0,0,1.39-.37,3.88,3.88,0,0,0,1.31-.69,2.34,2.34,0,0,1,.77-.49.76.76,0,0,0,.45-.49,2.22,2.22,0,0,1,.49-.74A7.3,7.3,0,0,0,128.8,115a10.27,10.27,0,0,0,.9-3A2.67,2.67,0,0,1,130,111a1.48,1.48,0,0,0,.09-.94,2,2,0,0,1,.16-1.39,5.82,5.82,0,0,0,.2-1.18q0-.62-.12-.78c-.11,0-.11-.19,0-.41a13.32,13.32,0,0,0,0-2.24,21,21,0,0,0-.16-2.7,11.82,11.82,0,0,1-.08-2.24c0-1.09.09-1.66.2-1.71a2.19,2.19,0,0,0,.57-.41,14.46,14.46,0,0,1,1.39-1c.6-.49.9-.78.9-.86s.08-.12.24-.12a1.72,1.72,0,0,0,.82-.49c.33-.27,1.09-.79,2.29-1.55l.73-.46a11.59,11.59,0,0,0,.41,3.07,6,6,0,0,1,.45,1.39,6.52,6.52,0,0,0,.77,1.92,3.18,3.18,0,0,1,.49.93q0,.16,1,1.11a18.23,18.23,0,0,0,1.84,1.51,10.85,10.85,0,0,0,3.67,1.79,6.52,6.52,0,0,0,4.57-.16,9.53,9.53,0,0,0,1.92-1.51,11.53,11.53,0,0,0,1.92-2.25c.44-.59.79-1.06,1.06-1.38a8.37,8.37,0,0,0,1-1.8c.16-.27.37-.67.61-1.18.08-.16.12-.26.18-.39l0,.18a7.1,7.1,0,0,0,.28,1.68,14.14,14.14,0,0,1,.61,1.75,38.22,38.22,0,0,0,1.11,3.8,4.31,4.31,0,0,0,.93,1.51,5.89,5.89,0,0,0,1.72.9,6.16,6.16,0,0,0,2,.4,1.51,1.51,0,0,0,1.31-.57,4.78,4.78,0,0,0,.65-1.79A62.8,62.8,0,0,0,166.92,94c.05-.93.11-1.61.16-2s.11-1.27.17-2.33a22.4,22.4,0,0,1,.24-2.57c.11-.54.19-1.09.25-1.63a11.15,11.15,0,0,1,.4-2.29c.06-.27.14-.39.25-.37s.16.18.16.45a6,6,0,0,0,.74,1.84,6.33,6.33,0,0,0,1.22,1.83,3.11,3.11,0,0,0,1.55.66,2.85,2.85,0,0,0,.9.16c.92,0,1.09-.35.49-1.06A5.77,5.77,0,0,1,172.72,85.1Zm-28.41,2.28a2.72,2.72,0,0,0,.33-.89,28.88,28.88,0,0,1,1.3-3,9,9,0,0,1,1.47-2.53l.16-.17c.06.06.08.22.08.49,0,.44,0,.68-.12.74s-.15.3-.2.73a8.82,8.82,0,0,1-1.71,3.51,5.81,5.81,0,0,1-1.48,1.47Zm-20.45,19.07c0,.35,0,.74,0,1.18s0,.84,0,1.22-.06.75-.08,1.11a6.16,6.16,0,0,1-.12.85,12.06,12.06,0,0,1-.66,3,2,2,0,0,0-.24.86,2,2,0,0,1-.33.94,3.18,3.18,0,0,1-.73,1.14l-.41.49-.25-.81a11.13,11.13,0,0,1-.24-2.78,12.06,12.06,0,0,1,.32-3.1,25.88,25.88,0,0,1,1.07-3c.1-.27.28-.67.53-1.19a12.45,12.45,0,0,1,.73-1.34q.38-.57.45-.57a8,8,0,0,1,.08,1C123.9,105.77,123.89,106.09,123.86,106.45Z"/><path class="cls-1" d="M208.67,89.47c-.57-.25-.94-.23-1.1,0a7.11,7.11,0,0,0-1,2.53c-.11.32-.71,1.74-1.79,4.24-.17.44-.3.66-.41.66s-.17.06-.17.2a2.23,2.23,0,0,1-.36.82,12.49,12.49,0,0,1-.9,1.26c-.36.44-.67.79-.94,1.06a4.6,4.6,0,0,1-2.78,1.47c-.32,0-.73-.33-1.22-1a12.8,12.8,0,0,1-1.39-2.45,16.1,16.1,0,0,1-1-2.94c-.16-.81-.3-1.44-.41-1.87a3.09,3.09,0,0,1-.16-1,7.5,7.5,0,0,0-.81-2.21,4.25,4.25,0,0,0-1-1.14,6.71,6.71,0,0,0-1.51-.94,3.85,3.85,0,0,0-1.55-.37q-1.05,0-2.93,3.35-1,1.8-1.8,3.18c-.71,1.2-1.09,1.83-1.14,1.88l-.49.66c-.17.21-.57.66-1.23,1.34a7.7,7.7,0,0,1-1.06,1,5.52,5.52,0,0,1,0-1.39c.05-.81.15-1.72.29-2.73a4.9,4.9,0,0,1,.36-1.67,2.39,2.39,0,0,0,.37-1.06,3.45,3.45,0,0,1,.37-1.15,4.88,4.88,0,0,0,.33-1.22,23.58,23.58,0,0,1,1.95-5.63,14.52,14.52,0,0,0,.82-1.68,4.87,4.87,0,0,1,.61-1.06c.36-.51.56-.77.62-.77a3.22,3.22,0,0,1,.52.93,6.57,6.57,0,0,1,.54,1.43,2.28,2.28,0,0,0,1.55,1.8,1.42,1.42,0,0,0,2-.74,4.4,4.4,0,0,0,.32-1.87,4.31,4.31,0,0,0-.24-1.72,5.62,5.62,0,0,1-.49-1.06,4.35,4.35,0,0,0-1-1.14,10.27,10.27,0,0,0-1.76-1.23,20.42,20.42,0,0,0-2-1,6.33,6.33,0,0,0-4.08-.24,5.4,5.4,0,0,0-2.16,1.35A7.26,7.26,0,0,0,179,79.39c-.33.59-.54,1-.65,1.22a10,10,0,0,0-.82,1.55,16,16,0,0,0-1.39,4.16,9.26,9.26,0,0,1-.49,1.55A16.38,16.38,0,0,0,175,93a10.18,10.18,0,0,0,.65,4.57,3.3,3.3,0,0,1,.33.94,3.06,3.06,0,0,0,.41.94,5.27,5.27,0,0,0,1.34,1.34,8.8,8.8,0,0,0,2.09,1.15,5.44,5.44,0,0,0,2,.44,3.57,3.57,0,0,0,2.28-1.3,15.39,15.39,0,0,0,1.43-1.84c.62-.9,1.07-1.59,1.35-2.08a37.41,37.41,0,0,1,3-5l.65-.82a15.54,15.54,0,0,1,.33,1.72,5.65,5.65,0,0,0,.32,1.75.39.39,0,0,1,0,.45c-.08.17,0,.43.17.78a1.92,1.92,0,0,1,.28.86,1.23,1.23,0,0,0,.33.73,1.19,1.19,0,0,1,.33.65,8.81,8.81,0,0,0,1.47,2,9.68,9.68,0,0,0,4.49,3,4.5,4.5,0,0,0,3.67-.24,9.88,9.88,0,0,0,2-1.55,11.27,11.27,0,0,0,1.67-2,9.52,9.52,0,0,1,.82-1.22,6,6,0,0,0,.61-1.15,7.91,7.91,0,0,0,.45-1.06,5.42,5.42,0,0,1,.33-.82,18.36,18.36,0,0,0,1.06-2.77,18,18,0,0,0,.65-2.29C209.53,90,209.24,89.71,208.67,89.47Z"/><path class="cls-1" d="M29.08,16.17q.3-.15.45,0a.76.76,0,0,0,.35.16,8.9,8.9,0,0,0-1.1,2.25,6.55,6.55,0,0,0-.23,2.35,4.54,4.54,0,0,0,.3,1.77,3.29,3.29,0,0,0,1.44.79c1.41.61,2.34.66,2.79.16a.85.85,0,0,0,.3-.5c0-.12.16-.36.46-.71a1.57,1.57,0,0,0,.45-.76,1.3,1.3,0,0,1,.23-.6,6.92,6.92,0,0,0,.53-2,5.79,5.79,0,0,0,.07-2c-.1-.71-.83-1.26-2.19-1.66a5.75,5.75,0,0,0-1.55-.27,1.19,1.19,0,0,0-.47.19,3.16,3.16,0,0,0-.24-.91,7.16,7.16,0,0,0-.61-1.09,6.47,6.47,0,0,0-.83-1,11.63,11.63,0,0,0-2.11-2,3.29,3.29,0,0,1-.83-.31,1.28,1.28,0,0,0-.95-.07,2.86,2.86,0,0,1-1.47-.12,3.09,3.09,0,0,0-1.63-.07,1.54,1.54,0,0,1-1,0,1,1,0,0,0-.91,0,7.49,7.49,0,0,1-2,.11,4.5,4.5,0,0,0-1.74.15,5.44,5.44,0,0,1-1.89.27,25.25,25.25,0,0,0-2.8.3,12,12,0,0,1-1.81.22,11.08,11.08,0,0,0-3.47.91,2.24,2.24,0,0,1-1.06.15c-.35-.1-1.56.3-3.63,1.21a4.26,4.26,0,0,0-1.32,1A1.88,1.88,0,0,0,0,15.19a2.08,2.08,0,0,0,.15.64,8.7,8.7,0,0,0,.42.94c.17.35.35.71.53,1.06a6,6,0,0,0,.56.94,6.25,6.25,0,0,0,.53.65l.68.52H4.38a6.08,6.08,0,0,0,2-.22q.57-.22.72-.15a1.59,1.59,0,0,0,.83-.15,3.42,3.42,0,0,1,1.28-.23,2.11,2.11,0,0,0,.91-.15,4.85,4.85,0,0,1,1.13-.3,9.47,9.47,0,0,0,1.06-.23c.15-.05.24-.06.27,0a1,1,0,0,1,0,.34,1.51,1.51,0,0,1-.15.68,7.22,7.22,0,0,0-.22,1.89A20,20,0,0,1,12,23.87a37.77,37.77,0,0,0-.15,4.61c.05,2.62.05,4.15,0,4.61a5.46,5.46,0,0,0,0,1.81A21.14,21.14,0,0,1,12,37.62a16.8,16.8,0,0,0,.15,2.57,28.81,28.81,0,0,1,.45,5.51,14.4,14.4,0,0,0,.46,2.57c.25,1.21.43,2.17.53,2.87s.22,1.21.37,1.81a7.57,7.57,0,0,1,.23,1.82,5.6,5.6,0,0,0,.15,1.2,11.19,11.19,0,0,0,.34,1.25A3.76,3.76,0,0,0,15,58a3.44,3.44,0,0,1,.53,1.14c.5,1.41,1.06,2.21,1.66,2.41a3.77,3.77,0,0,0,1.4.23,1.48,1.48,0,0,0,1-.23,2,2,0,0,0,.23-1.24,5.34,5.34,0,0,1,.26-1.78,11.16,11.16,0,0,0,.27-3,15,15,0,0,0-.23-3.17,2.31,2.31,0,0,1-.12-1.13A8.26,8.26,0,0,0,20,49c-.11-1.31-.18-2.67-.23-4.08a16.29,16.29,0,0,0-.15-2.27,32.52,32.52,0,0,1-.23-4.8q-.07-4.56.08-6a10.86,10.86,0,0,0-.12-2.31,4,4,0,0,1,0-1.77,5,5,0,0,0,0-2.08,14.33,14.33,0,0,1-.11-2.53V19.53a4.94,4.94,0,0,0-.15-1.7L19,17.68c0-.3.45-.46,1.36-.46A3.93,3.93,0,0,0,21.79,17,2.25,2.25,0,0,1,23,16.88a3.08,3.08,0,0,0,1.32,0,13.13,13.13,0,0,1,2.42-.34A11.81,11.81,0,0,0,29.08,16.17Z"/><path class="cls-1" d="M115.38,35.24c-.53-.23-.87-.21-1,0a6.46,6.46,0,0,0-.91,2.34c-.1.3-.65,1.61-1.66,3.93-.15.4-.28.6-.38.6s-.15.07-.15.19a2,2,0,0,1-.34.76,11.73,11.73,0,0,1-.83,1.17c-.33.4-.62.73-.87,1a4.3,4.3,0,0,1-2.57,1.36c-.3,0-.68-.3-1.13-.91a11.73,11.73,0,0,1-1.28-2.26,14,14,0,0,1-.91-2.72c-.15-.76-.28-1.34-.38-1.74a2.89,2.89,0,0,1-.15-.91,6.94,6.94,0,0,0-.75-2,4.1,4.1,0,0,0-1-1.05,5.65,5.65,0,0,0-1.4-.87,3.42,3.42,0,0,0-1.43-.34c-.66,0-1.56,1-2.72,3.09-.61,1.11-1.16,2.09-1.66,3-.66,1.11-1,1.69-1.06,1.74l-.45.6c-.15.2-.53.62-1.14,1.25a6.58,6.58,0,0,1-1,.94,4.69,4.69,0,0,1,0-1.28c0-.76.14-1.6.27-2.53A4.3,4.3,0,0,1,90.87,39a2.39,2.39,0,0,0,.34-1,2.75,2.75,0,0,1,.34-1.06,4.18,4.18,0,0,0,.3-1.13,21.53,21.53,0,0,1,1.81-5.22,15,15,0,0,0,.76-1.54,4.2,4.2,0,0,1,.56-1,2.94,2.94,0,0,1,.57-.71,3.12,3.12,0,0,1,.49.87,5.15,5.15,0,0,1,.49,1.32A2.1,2.1,0,0,0,98,31.2a1.32,1.32,0,0,0,1.81-.68,4,4,0,0,0,.3-1.74,3.91,3.91,0,0,0-.22-1.58,5.46,5.46,0,0,1-.46-1,3.87,3.87,0,0,0-.9-1.05A9.54,9.54,0,0,0,96.87,24a18.37,18.37,0,0,0-1.85-.9,5.82,5.82,0,0,0-3.78-.23,5.08,5.08,0,0,0-2,1.25,6.9,6.9,0,0,0-1.32,1.77L87.31,27a10.65,10.65,0,0,0-.75,1.44,14.18,14.18,0,0,0-1.28,3.85,10.79,10.79,0,0,1-.46,1.44,15.25,15.25,0,0,0-.6,4.76,9.45,9.45,0,0,0,.6,4.23,3.14,3.14,0,0,1,.3.86.9.9,0,0,0,.07.22c0,.19-.06.39-.1.58A20.45,20.45,0,0,1,84.37,47a10.06,10.06,0,0,1-1.66,2.79,3.26,3.26,0,0,0-.68.53,2.52,2.52,0,0,1-.64.26,2.92,2.92,0,0,1-.8.19,2.36,2.36,0,0,1-1.28-.68,7.9,7.9,0,0,1-1.44-1.51,6.12,6.12,0,0,1-.75-1.17,3,3,0,0,0-.38-.72,3.91,3.91,0,0,1-.57-1.51A3,3,0,0,0,75.83,44a2.62,2.62,0,0,1-.3-1.06c-.1-.6-.2-1.18-.3-1.73a32.14,32.14,0,0,1-.3-3.33q-.15-2.56-.3-3.93a16.74,16.74,0,0,1,0-2.26,15.23,15.23,0,0,0,.15-2.27c0-.5,0-1,.07-1.51a2.31,2.31,0,0,0-.07-1.06c-.1-.25-.12-.4,0-.45A4.14,4.14,0,0,0,75,25.08a6.53,6.53,0,0,1,.19-1.43,20.48,20.48,0,0,1,2.64-.12,17.59,17.59,0,0,1,3.17.12c.65.1,1.06.07,1.21-.08s.08-.45-.23-.91a3.57,3.57,0,0,0-.6-.87,3.18,3.18,0,0,0-.91-.41,20.67,20.67,0,0,0-3.7-.53l-1.36-.08.08-.6a5.28,5.28,0,0,0,.15-1.28,2.2,2.2,0,0,1,.3-1.06,7.09,7.09,0,0,0,.23-.83,3.89,3.89,0,0,1,.22-1.21,8.89,8.89,0,0,0,.15-1.59A9.45,9.45,0,0,1,76.82,12,5.13,5.13,0,0,0,77,10.43q-.15-.37-1.62-.87a4.31,4.31,0,0,0-2.08-.34,2.71,2.71,0,0,0-1.17.53,2.12,2.12,0,0,0-.79.83,13.66,13.66,0,0,0-1,2.72,6.68,6.68,0,0,1-.31,1.51,8.4,8.4,0,0,0-.22,1.66A6.53,6.53,0,0,1,69.64,18a6.33,6.33,0,0,0-.23,1.66c0,.46,0,.72-.11.79s-.36.12-.87.12c-1.66.1-2.49.58-2.49,1.43a1.89,1.89,0,0,0,.53,1.1,2.34,2.34,0,0,0,1,.79,2.4,2.4,0,0,0,.61.15,1.62,1.62,0,0,0,.52.08H69l-.08,2a47.14,47.14,0,0,0,.15,6.27,18.86,18.86,0,0,1,.15,2.34A4.76,4.76,0,0,0,69.34,36a6.49,6.49,0,0,1,.3,1.35c-.11.41-.24.86-.38,1.37-.05.25-.17.78-.37,1.58a7.31,7.31,0,0,1-.46,1.51,1.76,1.76,0,0,0-.22.68,9.22,9.22,0,0,1-1.29,3.25,8.78,8.78,0,0,0-.6,1.44c0,.1-.12.25-.34.45a.8.8,0,0,0-.34.57,1.56,1.56,0,0,1-.49.79,13.18,13.18,0,0,0-1,1.13l-.45.53-.45-.53a11.25,11.25,0,0,1-1.14-3c-.1-.45-.25-1.58-.45-3.4-.05-.65-.06-1.47,0-2.45a16.31,16.31,0,0,0-.11-2.61c-.1-.75-.18-2.06-.23-3.93q-.22-7.62-2-10a3.78,3.78,0,0,0-2.64-1.51,2.34,2.34,0,0,0-2,.45c-.71.71-1.06,1.23-1.06,1.59a14.75,14.75,0,0,1-1.36,3,1.71,1.71,0,0,0-.22.68,1.83,1.83,0,0,1-.23.68,11.69,11.69,0,0,0-.53,1.21A10.34,10.34,0,0,1,51,31.84a16.72,16.72,0,0,0-.52,1.85c-.31,1.06-.53,1.84-.68,2.34a8.51,8.51,0,0,0-.31,1.06A6.72,6.72,0,0,1,49,39.28a2.7,2.7,0,0,0-.23,1.06,1,1,0,0,1-.15.68s-.1-.08-.15-.23a11.25,11.25,0,0,1-.22-4.38c.1-1,.15-1.66.15-2.11a6.07,6.07,0,0,1,.15-1.82,20.61,20.61,0,0,0,.26-3.7,23.24,23.24,0,0,0-.11-3.55,2.32,2.32,0,0,0-.3-.72,3.79,3.79,0,0,0-.83-.56,6.24,6.24,0,0,0-2.54-.8,3.85,3.85,0,0,0-2.15.34,2.59,2.59,0,0,0-.49.5,2.86,2.86,0,0,0-.41.68,1.27,1.27,0,0,0-.15.56.82.82,0,0,1-.16.45,4.43,4.43,0,0,0-.22,1.59,8.82,8.82,0,0,1-.3,2.12,10.55,10.55,0,0,0-.35,2.41,7.91,7.91,0,0,0,0,2.19,14.94,14.94,0,0,1,.46,2.87c0,.1,0,.24.06.35a.55.55,0,0,1-.14.33c-.1.05-.12.14-.07.27a1.86,1.86,0,0,1-.23.94c-.15.46-.28.91-.38,1.36a10.58,10.58,0,0,1-.38,1.21,2.35,2.35,0,0,0-.3,1,6.62,6.62,0,0,1-.79,2,12.78,12.78,0,0,1-1.17,2l-.83.83A3.79,3.79,0,0,1,36,48l-.68.22-.6-.68a5.85,5.85,0,0,1-.79-1,8.45,8.45,0,0,1-.72-1.32A4.61,4.61,0,0,1,32.78,44c-.1-.4-.25-1-.45-1.73A9.63,9.63,0,0,1,32,39.05V38.3a17.85,17.85,0,0,1,.15-3.1,6.5,6.5,0,0,1,.38-2,2.17,2.17,0,0,0,.22-1,7.52,7.52,0,0,1,.53-2.87,5.46,5.46,0,0,0,.23-1.59l.08-1.28-.53-.3a6,6,0,0,0-2.95-1,2.42,2.42,0,0,0-1.51.3,3.39,3.39,0,0,0-1.36,2.26c-.1.56-.25,1.26-.45,2.12a21.68,21.68,0,0,0-.53,4.08,8.81,8.81,0,0,0,.08,3,15.23,15.23,0,0,1,.22,1.74,13.89,13.89,0,0,0,.34,2.15,11.48,11.48,0,0,0,.64,1.93,19.32,19.32,0,0,0,1.82,3.17,16.66,16.66,0,0,0,2.49,2.76,7.36,7.36,0,0,0,2.42,1.24,5.21,5.21,0,0,0,3.55,0,11.4,11.4,0,0,0,1.28-.79,3.91,3.91,0,0,0,.83-.64,1,1,0,0,1,.23-.46,13.47,13.47,0,0,0,2-3.17,16.78,16.78,0,0,0,1-3,20,20,0,0,0,1,2A8.18,8.18,0,0,0,45.4,45.4a5.48,5.48,0,0,0,.9.87,5.06,5.06,0,0,0,1.13.41c1.52.36,2.52.18,3-.53a2.82,2.82,0,0,0,.75-1.81,27.41,27.41,0,0,1,.68-4.83,2.23,2.23,0,0,0,.15-.83,12,12,0,0,1,.53-2.57,9.77,9.77,0,0,0,.3-1.36,32,32,0,0,1,1.66-5.21,7.2,7.2,0,0,0,.31-1.06c0-.1.17-.33.37-.68l.38-.53-.07,1.89c-.11,1.21-.21,2.29-.31,3.25-.1,1.21-.13,3.11-.11,5.7a19.67,19.67,0,0,0,.27,4.34c.1.21.12.33.07.38s-.13.37-.07.79a2.82,2.82,0,0,0,.22,1,1.14,1.14,0,0,1,.3.68,7,7,0,0,0,.42,1.51,8.17,8.17,0,0,0,.57,1.43.66.66,0,0,1,.22.42c0,.13.18.37.53.72a20.23,20.23,0,0,0,2.84,2.79,5.2,5.2,0,0,0,2.22.91,6.9,6.9,0,0,0,2.49,0c.76-.15,1.49-.83,2.2-2,.65-1,1.08-1.69,1.28-2A12.63,12.63,0,0,0,70,45.48c.29-1,.5-1.94.67-2.81h0a2.32,2.32,0,0,1,.3.76,12.43,12.43,0,0,0,2.12,4.45,9.42,9.42,0,0,0,1.51,1.66,9.86,9.86,0,0,0,1.58,1.29l1.06.53a5.4,5.4,0,0,0,1.51.45c2.42.45,4.23.13,5.44-1a6.3,6.3,0,0,0,1.1-1.4A3.57,3.57,0,0,0,86,48a1.76,1.76,0,0,1,.22-.6,8.35,8.35,0,0,0,.6-1.68,8.63,8.63,0,0,0,1.89,1,5.27,5.27,0,0,0,1.82.41A3.29,3.29,0,0,0,92.6,46a12.56,12.56,0,0,0,1.32-1.7c.58-.83,1-1.47,1.25-1.92A35.51,35.51,0,0,1,98,37.77l.6-.75a12,12,0,0,1,.3,1.58,4.85,4.85,0,0,0,.31,1.63.34.34,0,0,1,0,.41q-.1.22.15.72a1.79,1.79,0,0,1,.27.79,1.14,1.14,0,0,0,.3.68,1.09,1.09,0,0,1,.3.61,8.63,8.63,0,0,0,1.36,1.88,9,9,0,0,0,4.16,2.8,4.18,4.18,0,0,0,3.4-.23A9.17,9.17,0,0,0,111,46.46a10.07,10.07,0,0,0,1.54-1.82,11,11,0,0,1,.76-1.13,5.19,5.19,0,0,0,.57-1.06,8.32,8.32,0,0,0,.41-1,4.86,4.86,0,0,1,.3-.75,17.44,17.44,0,0,0,1-2.57,16.47,16.47,0,0,0,.6-2.12C116.17,35.73,115.91,35.47,115.38,35.24Z"/><path class="cls-1" d="M310.62,31a1.37,1.37,0,0,0-1-.19,2.85,2.85,0,0,0-.86.14c-.19.07-.52.16-1,.29a4.41,4.41,0,0,0-1.36.51c-.47.22-.88.43-1.22.61s-.61.32-.61.38a.3.3,0,0,1-.19.09.34.34,0,0,0-.26.14c-.08.1-.14.14-.19.14a7.76,7.76,0,0,1-.07-1.73c0-3.42-.36-5.51-1.08-6.3a2.74,2.74,0,0,0-1.45-.77,2.1,2.1,0,0,0-1.46.07,2.65,2.65,0,0,0-.61.52l-.89,1.55q0,.13-.33.75A24.18,24.18,0,0,0,297,29.57a.31.31,0,0,1-.1.24c0,.06-.18.44-.47,1.12a6,6,0,0,1-.49,1.08,1.78,1.78,0,0,0-.21.43,5,5,0,0,1-.23.65.75.75,0,0,0-.14.36,1.23,1.23,0,0,1-.26.47c-.18.23-.24.35-.19.35s0,.09-.14.26a.74.74,0,0,0-.21.37,1.31,1.31,0,0,1-.31.5c-.2.25-.37.43-.49.56-.32.25-.52.14-.61-.33a1.55,1.55,0,0,0-.17-.42,2.34,2.34,0,0,1-.14-.64,2.47,2.47,0,0,0-.16-.7,8.33,8.33,0,0,1-.14-1.86c0-.28,0-.57,0-.86s0-.62,0-1c0-.09,0-.34.05-.75s.07-.91.14-1.69a4.85,4.85,0,0,1,.16-1.17,1.34,1.34,0,0,0,.07-.59,1.2,1.2,0,0,1,.1-.63c0-.1.07-.38.14-.85l0-.7-.37-.38a3.19,3.19,0,0,0-1.22-.66,4.63,4.63,0,0,0-1-.23,1.39,1.39,0,0,0-.61.19,2,2,0,0,0-.82,1,6.22,6.22,0,0,0-.54,1.47,11.76,11.76,0,0,0-.28,2.56,10.55,10.55,0,0,0,.09,2.24,5.19,5.19,0,0,1,.19,1,6.09,6.09,0,0,0,.47,2.06,2.72,2.72,0,0,1,.23.8,1.06,1.06,0,0,0,.1.43,2.64,2.64,0,0,0,.23.44,2.85,2.85,0,0,0,.28.35.53.53,0,0,1,.19.38c0,.09.16.31.47.66a5.66,5.66,0,0,0,.8.75,8.85,8.85,0,0,0,1.13.47,5.54,5.54,0,0,0,1.27.33,2.3,2.3,0,0,0,1.83-.8,10.86,10.86,0,0,0,1.69-2.77c.19-.41.31-.69.37-.85a.46.46,0,0,0,.1-.28,2.58,2.58,0,0,1,.23-.61A6.79,6.79,0,0,0,298.6,31a1,1,0,0,1,.14-.47c.12-.28.25-.58.37-.89a7.93,7.93,0,0,1,.45-1.1c.23-.52.46-1,.68-1.44s.34-.67.37-.7.13.12.19.28.06,1.5.07,4,0,4,0,4.43a.89.89,0,0,1-.26.54c-.17.21-.62.68-1.34,1.44a14.47,14.47,0,0,0-1.83,2c0,.06-.09.18-.26.35s-.26.29-.26.35-.07.17-.23.31a6.7,6.7,0,0,0-.87,1.52,15.28,15.28,0,0,0-.73,1.69,1.61,1.61,0,0,1-.18.69,1.24,1.24,0,0,0-.19.58c0,.25-.08.52-.14.8a2.74,2.74,0,0,0,.18,1.74,2,2,0,0,0,.94,1.17,8.37,8.37,0,0,0,1.27.33,7,7,0,0,0,1,.19,6,6,0,0,0,.85-.14,3.46,3.46,0,0,0,1.06-.45,1.3,1.3,0,0,1,.44-.26c.1,0,.35-.22.75-.65a5.49,5.49,0,0,0,.76-.94c.21-.41.34-.64.37-.71a14.52,14.52,0,0,0,.71-2,17.18,17.18,0,0,0,.47-2.11c.06-.44.12-.86.18-1.27a9.63,9.63,0,0,0,.1-1.31c0-.47,0-.73.11-.78s.12-.26.12-.63a8.83,8.83,0,0,1,.19-2.77,10.14,10.14,0,0,1,2.23-1.43,18,18,0,0,1,2.51-1.25l.8-.28a7.74,7.74,0,0,1,.8-.33C310.84,31.39,310.9,31.23,310.62,31Zm-10.33,9c0,.22-.11.7-.24,1.45a6.36,6.36,0,0,1-.47,1.88,5,5,0,0,0-.28.75,6.42,6.42,0,0,1-1.55,2.49c-.44.47-.7.6-.8.38a6,6,0,0,1-.07-1.5,7.18,7.18,0,0,1,.12-1.51,1.86,1.86,0,0,0,.14-.37,4,4,0,0,1,.33-1.08,6.94,6.94,0,0,1,.8-1.6,1.26,1.26,0,0,0,.23-.42,4.59,4.59,0,0,1,.61-.9l1-1.26c.16-.19.25-.27.29-.24S300.5,38.78,300.29,40Z"/><path class="cls-2" d="M129.43,21.26h0a4.26,4.26,0,0,0-6-.64l-.22.18-.17-.21a4.27,4.27,0,0,0-6-.63h0a4.25,4.25,0,0,0-.63,6L122,32.77h0l6.62-5.35h0l.22-.18A4.25,4.25,0,0,0,129.43,21.26Z"/></g></g></svg>